{
  "asset": {
    "version": "2.0",
    "generator": "ShivamJewelsDiamondCarouselGenerator"
  },
  "scenes": [
    {
      "nodes": [
        0
      ]
    }
  ],
  "nodes": [
    {
      "mesh": 0,
      "name": "DiamondNode"
    }
  ],
  "meshes": [
    {
      "name": "DiamondMesh",
      "primitives": [
        {
          "indices": 0,
          "attributes": {
            "POSITION": 1,
            "NORMAL": 2,
            "TEXCOORD_0": 3
          },
          "material": 0
        }
      ]
    }
  ],
  "materials": [
    {
      "name": "PureCrystalDiamondMaterial",
      "pbrMetallicRoughness": {
        "baseColorFactor": [
          0.92,
          0.97,
          1.0,
          0.95
        ],
        "metallicFactor": 0.15,
        "roughnessFactor": 0.01
      },
      "doubleSided": true
    }
  ],
  "accessors": [
    {
      "bufferView": 0,
      "byteOffset": 0,
      "componentType": 5123,
      "count": 336,
      "type": "SCALAR",
      "max": [
        335
      ],
      "min": [
        0
      ]
    },
    {
      "bufferView": 1,
      "byteOffset": 0,
      "componentType": 5126,
      "count": 336,
      "type": "VEC3",
      "max": [
        0.5,
        0.24,
        0.5
      ],
      "min": [
        -0.5,
        -0.55,
        -0.5
      ]
    },
    {
      "bufferView": 2,
      "byteOffset": 0,
      "componentType": 5126,
      "count": 336,
      "type": "VEC3"
    },
    {
      "bufferView": 3,
      "byteOffset": 0,
      "componentType": 5126,
      "count": 336,
      "type": "VEC2"
    }
  ],
  "bufferViews": [
    {
      "buffer": 0,
      "byteOffset": 0,
      "byteLength": 672,
      "target": 34963
    },
    {
      "buffer": 0,
      "byteOffset": 672,
      "byteLength": 4032,
      "target": 34962
    },
    {
      "buffer": 0,
      "byteOffset": 4704,
      "byteLength": 4032,
      "target": 34962
    },
    {
      "buffer": 0,
      "byteOffset": 8736,
      "byteLength": 2688,
      "target": 34962
    }
  ],
  "buffers": [
    {
      "uri": "data:application/octet-stream;base64,",
      "byteLength": 11424
    }
  ]
}